{
.appVersion = "3343";
.formatVersion = 3;
DisplayStrings = (
blastedv,
ag,
" g",
A,
"ABCDEFGHIJKLMNOPQRSTUVWXYZ
alkjkjkjkfjkjfl ",
g,
Q,
U,
B,
O,
ABCDEFGHIJKMN,
G
);
axes = (
{
name = Weight;
tag = wght;
}
);
date = "2025-06-16 18:29:40 +0000";
familyName = "Superb Ellipse Regular";
fontMaster = (
{
axesValues = (
300
);
id = m01;
metricValues = (
{
over = 16;
pos = 760;
},
{
over = 16;
pos = 700;
},
{
over = 16;
pos = 500;
},
{
over = -16;
},
{
over = -16;
pos = -212;
},
{
}
);
name = Regular;
userData = {
GSCornerRadius = 5;
};
},
{
axesValues = (
600
);
iconName = Bold;
id = m002;
metricValues = (
{
over = 16;
pos = 760;
},
{
over = 16;
pos = 700;
},
{
over = 16;
pos = 500;
},
{
over = -16;
},
{
over = -16;
pos = -212;
},
{
}
);
name = Bold;
userData = {
GSCornerRadius = 5;
};
}
);
glyphs = (
{
glyphname = A;
layers = (
{
layerId = m01;
shapes = (
{
closed = 1;
nodes = (
(588,0,l),
(350,700,l),
(268,700,l),
(506,0,l)
);
},
{
closed = 1;
nodes = (
(20,0,l),
(76,0,l),
(309,700,l),
(268,700,l)
);
},
{
closed = 1;
nodes = (
(425,295,l),
(161,295,l),
(161,264,l),
(425,264,l)
);
}
);
width = 608;
},
{
layerId = m002;
shapes = (
{
closed = 1;
nodes = (
(588,0,l),
(350,700,l),
(268,700,l),
(506,0,l)
);
},
{
closed = 1;
nodes = (
(20,0,l),
(76,0,l),
(309,700,l),
(268,700,l)
);
},
{
closed = 1;
nodes = (
(425,295,l),
(161,295,l),
(161,264,l),
(425,264,l)
);
}
);
width = 608;
}
);
unicode = 65;
},
{
glyphname = B;
layers = (
{
layerId = m01;
shapes = (
{
closed = 1;
nodes = (
(315,0,ls),
(455,0,o),
(535,67,o),
(535,204,cs),
(535,338,o),
(415,406,o),
(305,406,cs),
(119,405,l),
(119,376,l),
(305,376,ls),
(402,376,o),
(452,303,o),
(452,222,cs),
(452,180,ls),
(452,83,o),
(430,30,o),
(315,30,cs),
(137,30,l),
(139,0,l)
);
},
{
closed = 1;
nodes = (
(147,0,l),
(147,700,l),
(65,700,l),
(65,0,l)
);
},
{
closed = 1;
nodes = (
(275,376,ls),
(365,376,o),
(495,404,o),
(495,542,cs),
(495,642,o),
(443,702,o),
(305,701,cs),
(119,700,l),
(104,671,l),
(305,671,ls),
(372,671,o),
(412,630,o),
(412,548,cs),
(412,522,ls),
(412,455,o),
(370,406,o),
(275,406,cs),
(137,406,l),
(139,376,l)
);
}
);
width = 575;
},
{
layerId = m002;
shapes = (
{
closed = 1;
nodes = (
(315,0,ls),
(455,0,o),
(535,67,o),
(535,204,cs),
(535,338,o),
(415,406,o),
(305,406,cs),
(119,405,l),
(119,376,l),
(305,376,ls),
(402,376,o),
(452,303,o),
(452,222,cs),
(452,180,ls),
(452,83,o),
(430,30,o),
(315,30,cs),
(137,30,l),
(139,0,l)
);
},
{
closed = 1;
nodes = (
(147,0,l),
(147,700,l),
(65,700,l),
(65,0,l)
);
},
{
closed = 1;
nodes = (
(275,376,ls),
(365,376,o),
(495,404,o),
(495,542,cs),
(495,642,o),
(443,702,o),
(305,701,cs),
(119,700,l),
(104,671,l),
(305,671,ls),
(372,671,o),
(412,630,o),
(412,548,cs),
(412,522,ls),
(412,455,o),
(370,406,o),
(275,406,cs),
(137,406,l),
(139,376,l)
);
}
);
width = 575;
}
);
unicode = 66;
},
{
glyphname = C;
layers = (
{
layerId = m01;
shapes = (
{
closed = 1;
nodes = (
(551,223,l),
(551,69,o),
(478,14,o),
(335,14,cs),
(198,14,o),
(115,91,o),
(111,304,cs),
(112,386,ls),
(115,598,o),
(198,685,o),
(335,685,cs),
(463,685,o),
(551,620,o),
(551,466,c),
(631,466,l),
(631,647,o),
(474,715,o),
(335,715,cs),
(185,715,o),
(32,623,o),
(30,368,cs),
(30,332,ls),
(32,75,o),
(185,-16,o),
(335,-16,cs),
(471,-16,o),
(628,49,o),
(628,223,c)
);
}
);
width = 661;
},
{
layerId = m002;
shapes = (
{
closed = 1;
nodes = (
(609,223,l),
(599,69,o),
(523,14,o),
(380,14,cs),
(243,14,o),
(113,91,o),
(113,304,cs),
(113,386,ls),
(113,598,o),
(243,685,o),
(380,685,cs),
(508,685,o),
(609,620,o),
(609,466,c),
(689,466,l),
(679,647,o),
(519,715,o),
(380,715,cs),
(230,715,o),
(30,623,o),
(30,368,cs),
(30,332,ls),
(30,75,o),
(230,-16,o),
(380,-16,cs),
(516,-16,o),
(676,49,o),
(686,223,c)
);
}
);
width = 719;
}
);
unicode = 67;
},
{
glyphname = D;
layers = (
{
layerId = m01;
shapes = (
{
closed = 1;
nodes = (
(147,0,l),
(147,700,l),
(65,700,l),
(65,0,l)
);
},
{
closed = 1;
nodes = (
(260,30,l),
(137,30,l),
(139,0,l),
(260,0,l)
);
},
{
closed = 1;
nodes = (
(260,701,l),
(119,700,l),
(104,671,l),
(260,671,l)
);
},
{
closed = 1;
nodes = (
(396,670,o),
(525,599,o),
(525,388,cs),
(525,306,ls),
(525,94,o),
(396,31,o),
(260,30,c),
(260,0,l),
(410,1,o),
(608,78,o),
(608,334,cs),
(608,370,ls),
(608,624,o),
(410,700,o),
(260,701,c),
(260,671,l)
);
}
);
width = 638;
},
{
layerId = m002;
shapes = (
{
closed = 1;
nodes = (
(147,0,l),
(147,700,l),
(65,700,l),
(65,0,l)
);
},
{
closed = 1;
nodes = (
(260,30,l),
(137,30,l),
(139,0,l),
(260,0,l)
);
},
{
closed = 1;
nodes = (
(260,701,l),
(119,700,l),
(104,671,l),
(260,671,l)
);
},
{
closed = 1;
nodes = (
(396,670,o),
(525,599,o),
(525,388,cs),
(525,306,ls),
(525,94,o),
(396,31,o),
(260,30,c),
(260,0,l),
(410,1,o),
(608,78,o),
(608,334,cs),
(608,370,ls),
(608,624,o),
(410,700,o),
(260,701,c),
(260,671,l)
);
}
);
width = 638;
}
);
unicode = 68;
},
{
glyphname = E;
layers = (
{
layerId = m01;
shapes = (
{
closed = 1;
nodes = (
(147,0,l),
(147,669,l),
(505,669,l),
(505,700,l),
(147,700,l),
(65,700,l),
(65,0,l)
);
},
{
closed = 1;
nodes = (
(505,0,l),
(505,31,l),
(147,31,l),
(147,0,l)
);
},
{
closed = 1;
nodes = (
(393,370,l),
(393,401,l),
(147,401,l),
(147,370,l)
);
}
);
width = 535;
},
{
associatedMasterId = m01;
layerId = "170B6BF0-A43A-4D8A-B9E3-1F717F6B66C4";
width = 600;
},
{
layerId = m002;
shapes = (
{
closed = 1;
nodes = (
(147,0,l),
(147,669,l),
(505,669,l),
(505,700,l),
(147,700,l),
(65,700,l),
(65,0,l)
);
},
{
closed = 1;
nodes = (
(505,0,l),
(505,31,l),
(147,31,l),
(147,0,l)
);
},
{
closed = 1;
nodes = (
(393,370,l),
(393,401,l),
(147,401,l),
(147,370,l)
);
}
);
width = 535;
}
);
unicode = 69;
},
{
glyphname = F;
layers = (
{
layerId = m01;
shapes = (
{
closed = 1;
nodes = (
(147,0,l),
(147,669,l),
(505,669,l),
(505,700,l),
(147,700,l),
(147,700,l),
(65,700,l),
(65,0,l)
);
},
{
closed = 1;
nodes = (
(423,300,l),
(423,331,l),
(147,331,l),
(147,300,l)
);
}
);
width = 535;
},
{
associatedMasterId = m01;
layerId = "170B6BF0-A43A-4D8A-B9E3-1F717F6B66C4";
width = 600;
},
{
layerId = m002;
shapes = (
{
closed = 1;
nodes = (
(147,0,l),
(147,669,l),
(505,669,l),
(505,700,l),
(147,700,l),
(147,700,l),
(65,700,l),
(65,0,l)
);
},
{
closed = 1;
nodes = (
(423,300,l),
(423,331,l),
(147,331,l),
(147,300,l)
);
}
);
width = 535;
}
);
unicode = 70;
},
{
glyphname = G;
lastChange = "2025-06-27 17:07:14 +0000";
layers = (
{
layerId = m01;
shapes = (
{
closed = 1;
nodes = (
(626,291,l),
(626,322,l),
(431,322,l),
(431,291,l)
);
},
{
closed = 1;
nodes = (
(549,291,l),
(549,70,o),
(474,14,o),
(331,14,cs),
(194,14,o),
(113,91,o),
(113,304,cs),
(113,386,ls),
(113,598,o),
(194,685,o),
(331,685,cs),
(459,685,o),
(549,620,o),
(549,466,c),
(629,466,l),
(629,647,o),
(470,715,o),
(331,715,cs),
(181,715,o),
(30,623,o),
(30,368,cs),
(30,332,ls),
(30,75,o),
(191,-16,o),
(341,-16,cs),
(477,-16,o),
(603,69,o),
(603,291,c)
);
},
{
closed = 1;
nodes = (
(589,0,l),
(626,0,l),
(626,291,l),
(589,291,l)
);
}
);
width = 659;
},
{
associatedMasterId = m01;
layerId = "170B6BF0-A43A-4D8A-B9E3-1F717F6B66C4";
width = 600;
},
{
layerId = m002;
shapes = (
{
closed = 1;
nodes = (
(626,291,l),
(626,322,l),
(431,322,l),
(431,291,l)
);
},
{
closed = 1;
nodes = (
(549,291,l),
(549,70,o),
(474,14,o),
(331,14,cs),
(194,14,o),
(113,91,o),
(113,304,cs),
(113,386,ls),
(113,598,o),
(194,685,o),
(331,685,cs),
(459,685,o),
(549,620,o),
(549,466,c),
(629,466,l),
(629,647,o),
(470,715,o),
(331,715,cs),
(181,715,o),
(30,623,o),
(30,368,cs),
(30,332,ls),
(30,75,o),
(191,-16,o),
(341,-16,cs),
(477,-16,o),
(603,69,o),
(603,291,c)
);
},
{
closed = 1;
nodes = (
(589,0,l),
(626,0,l),
(626,291,l),
(589,291,l)
);
}
);
width = 674;
}
);
unicode = 71;
},
{
glyphname = H;
layers = (
{
layerId = m01;
shapes = (
{
closed = 1;
nodes = (
(147,0,l),
(147,370,l),
(563,370,l),
(563,0,l),
(645,0,l),
(645,700,l),
(563,700,l),
(563,401,l),
(147,401,l),
(147,700,l),
(65,700,l),
(65,0,l)
);
}
);
width = 710;
},
{
associatedMasterId = m01;
layerId = "170B6BF0-A43A-4D8A-B9E3-1F717F6B66C4";
width = 600;
},
{
layerId = m002;
shapes = (
{
closed = 1;
nodes = (
(147,0,l),
(147,370,l),
(563,370,l),
(563,0,l),
(645,0,l),
(645,700,l),
(563,700,l),
(563,401,l),
(147,401,l),
(147,700,l),
(65,700,l),
(65,0,l)
);
}
);
width = 710;
}
);
unicode = 72;
},
{
glyphname = I;
layers = (
{
layerId = m01;
shapes = (
{
closed = 1;
nodes = (
(65,700,l),
(65,0,l),
(147,0,l),
(147,700,l)
);
}
);
width = 212;
},
{
associatedMasterId = m01;
layerId = "170B6BF0-A43A-4D8A-B9E3-1F717F6B66C4";
width = 600;
},
{
layerId = m002;
shapes = (
{
closed = 1;
nodes = (
(65,700,l),
(65,0,l),
(147,0,l),
(147,700,l)
);
}
);
width = 212;
}
);
unicode = 73;
},
{
glyphname = J;
layers = (
{
layerId = m01;
shapes = (
{
closed = 1;
nodes = (
(389,198,l),
(389,700,l),
(307,700,l),
(307,198,l)
);
},
{
closed = 1;
nodes = (
(307,182,ls),
(307,80,o),
(296,12,o),
(199,12,cs),
(129,12,o),
(98,59,o),
(98,135,c),
(20,135,l),
(20,29,o),
(112,-16,o),
(199,-16,cs),
(309,-16,o),
(389,36,o),
(389,181,cs),
(389,198,l),
(307,198,l)
);
}
);
width = 454;
},
{
associatedMasterId = m01;
layerId = "170B6BF0-A43A-4D8A-B9E3-1F717F6B66C4";
width = 600;
},
{
layerId = m002;
shapes = (
{
closed = 1;
nodes = (
(389,198,l),
(389,700,l),
(307,700,l),
(307,198,l)
);
},
{
closed = 1;
nodes = (
(307,182,ls),
(307,80,o),
(296,12,o),
(199,12,cs),
(129,12,o),
(98,59,o),
(98,135,c),
(20,135,l),
(20,29,o),
(112,-16,o),
(199,-16,cs),
(309,-16,o),
(389,36,o),
(389,181,cs),
(389,198,l),
(307,198,l)
);
}
);
width = 454;
}
);
unicode = 74;
},
{
glyphname = K;
layers = (
{
layerId = m01;
shapes = (
{
closed = 1;
nodes = (
(116,222,l),
(539,700,l),
(496,700,l),
(73,222,l)
);
},
{
closed = 1;
nodes = (
(65,700,l),
(65,0,l),
(147,0,l),
(147,700,l)
);
},
{
closed = 1;
nodes = (
(234,374,l),
(496,0,l),
(577,0,l),
(278,435,l)
);
}
);
width = 577;
},
{
associatedMasterId = m01;
layerId = "170B6BF0-A43A-4D8A-B9E3-1F717F6B66C4";
width = 600;
},
{
layerId = m002;
shapes = (
{
closed = 1;
nodes = (
(116,222,l),
(539,700,l),
(496,700,l),
(73,222,l)
);
},
{
closed = 1;
nodes = (
(65,700,l),
(65,0,l),
(147,0,l),
(147,700,l)
);
},
{
closed = 1;
nodes = (
(223,374,l),
(485,0,l),
(577,0,l),
(278,435,l)
);
}
);
width = 577;
}
);
unicode = 75;
},
{
glyphname = L;
layers = (
{
layerId = m01;
shapes = (
{
closed = 1;
nodes = (
(147,0,l),
(147,700,l),
(65,700,l),
(65,0,l)
);
},
{
closed = 1;
nodes = (
(505,0,l),
(505,31,l),
(147,31,l),
(147,0,l)
);
}
);
width = 535;
},
{
associatedMasterId = m01;
layerId = "170B6BF0-A43A-4D8A-B9E3-1F717F6B66C4";
width = 600;
},
{
layerId = m002;
shapes = (
{
closed = 1;
nodes = (
(147,0,l),
(147,700,l),
(65,700,l),
(65,0,l)
);
},
{
closed = 1;
nodes = (
(505,0,l),
(505,31,l),
(147,31,l),
(147,0,l)
);
}
);
width = 535;
}
);
unicode = 76;
},
{
glyphname = M;
layers = (
{
layerId = m01;
shapes = (
{
closed = 1;
nodes = (
(755,0,l),
(755,700,l),
(673,573,l),
(673,0,l)
);
},
{
closed = 1;
nodes = (
(434,0,l),
(755,700,l),
(715,700,l),
(441,99,l),
(101,700,l),
(65,700,l),
(65,1,l),
(101,1,l),
(101,536,l),
(409,1,l)
);
}
);
width = 862;
},
{
associatedMasterId = m01;
layerId = "170B6BF0-A43A-4D8A-B9E3-1F717F6B66C4";
width = 600;
},
{
layerId = m002;
shapes = (
{
closed = 1;
nodes = (
(755,0,l),
(755,700,l),
(673,573,l),
(673,0,l)
);
},
{
closed = 1;
nodes = (
(434,0,l),
(755,700,l),
(715,700,l),
(441,99,l),
(101,700,l),
(65,700,l),
(65,1,l),
(101,1,l),
(101,536,l),
(409,1,l)
);
}
);
width = 820;
}
);
unicode = 77;
},
{
glyphname = N;
layers = (
{
layerId = m01;
shapes = (
{
closed = 1;
nodes = (
(594,0,l),
(594,700,l),
(558,700,l),
(558,0,l)
);
},
{
closed = 1;
nodes = (
(559,116,l),
(101,700,l),
(65,700,l),
(65,1,l),
(101,1,l),
(101,574,l),
(558,0,l)
);
}
);
width = 659;
},
{
associatedMasterId = m01;
layerId = "170B6BF0-A43A-4D8A-B9E3-1F717F6B66C4";
width = 600;
},
{
layerId = m002;
shapes = (
{
closed = 1;
nodes = (
(594,0,l),
(594,700,l),
(558,700,l),
(558,0,l)
);
},
{
closed = 1;
nodes = (
(559,116,l),
(101,700,l),
(65,700,l),
(65,1,l),
(101,1,l),
(101,574,l),
(558,0,l)
);
}
);
width = 659;
}
);
unicode = 78;
},
{
glyphname = O;
layers = (
{
layerId = m01;
shapes = (
{
closed = 1;
nodes = (
(500,-16,o),
(670,75,o),
(670,332,cs),
(670,368,ls),
(670,623,o),
(500,715,o),
(350,715,cs),
(200,715,o),
(30,623,o),
(30,368,cs),
(30,332,ls),
(30,75,o),
(200,-16,o),
(350,-16,cs)
);
},
{
closed = 1;
nodes = (
(213,14,o),
(113,91,o),
(113,304,cs),
(113,386,ls),
(113,598,o),
(213,685,o),
(350,685,cs),
(487,685,o),
(586,598,o),
(586,386,cs),
(586,304,ls),
(586,97,o),
(505,14,o),
(350,14,cs)
);
}
);
width = 700;
},
{
associatedMasterId = m01;
layerId = "170B6BF0-A43A-4D8A-B9E3-1F717F6B66C4";
width = 600;
},
{
layerId = m002;
shapes = (
{
closed = 1;
nodes = (
(530,-16,o),
(730,75,o),
(730,332,cs),
(730,368,ls),
(730,623,o),
(530,715,o),
(380,715,cs),
(230,715,o),
(30,623,o),
(30,368,cs),
(30,332,ls),
(30,75,o),
(230,-16,o),
(380,-16,cs)
);
},
{
closed = 1;
nodes = (
(243,14,o),
(113,91,o),
(113,304,cs),
(113,386,ls),
(113,598,o),
(243,685,o),
(380,685,cs),
(517,685,o),
(646,598,o),
(646,386,cs),
(646,304,ls),
(646,97,o),
(535,14,o),
(380,14,cs)
);
}
);
width = 760;
}
);
unicode = 79;
},
{
glyphname = P;
layers = (
{
layerId = m01;
shapes = (
{
closed = 1;
nodes = (
(65,700,l),
(65,0,l),
(147,0,l),
(147,700,l)
);
},
{
closed = 1;
nodes = (
(285,670,l),
(402,670,o),
(422,600,o),
(422,503,cs),
(422,476,ls),
(422,374,o),
(402,284,o),
(285,284,cs),
(96,284,l),
(96,254,l),
(285,254,ls),
(415,254,o),
(505,339,o),
(505,484,cs),
(505,626,o),
(415,700,o),
(285,700,c)
);
},
{
closed = 1;
nodes = (
(96,670,l),
(285,670,l),
(285,700,l),
(96,700,l)
);
}
);
width = 535;
},
{
associatedMasterId = m01;
layerId = "170B6BF0-A43A-4D8A-B9E3-1F717F6B66C4";
width = 600;
},
{
layerId = m002;
shapes = (
{
closed = 1;
nodes = (
(65,700,l),
(65,0,l),
(147,0,l),
(147,700,l)
);
},
{
closed = 1;
nodes = (
(285,670,l),
(402,670,o),
(422,600,o),
(422,503,cs),
(422,476,ls),
(422,374,o),
(402,284,o),
(285,284,cs),
(96,284,l),
(96,254,l),
(285,254,ls),
(415,254,o),
(505,339,o),
(505,484,cs),
(505,626,o),
(415,700,o),
(285,700,c)
);
},
{
closed = 1;
nodes = (
(96,670,l),
(285,670,l),
(285,700,l),
(96,700,l)
);
}
);
width = 535;
}
);
unicode = 80;
},
{
glyphname = Q;
layers = (
{
layerId = m01;
shapes = (
{
closed = 1;
nodes = (
(299,-1,l),
(299,-17,ls),
(299,-163,o),
(402,-228,o),
(495,-228,cs),
(569,-228,o),
(647,-189,o),
(647,-99,c),
(561,-99,l),
(561,-162,o),
(536,-203,o),
(477,-203,cs),
(395,-203,o),
(402,-128,o),
(402,-17,cs),
(402,-1,l)
);
},
{
closed = 1;
nodes = (
(500,-16,o),
(670,75,o),
(670,332,cs),
(670,368,ls),
(670,623,o),
(500,715,o),
(350,715,cs),
(200,715,o),
(30,623,o),
(30,368,cs),
(30,332,ls),
(30,75,o),
(200,-16,o),
(350,-16,cs)
);
},
{
closed = 1;
nodes = (
(213,14,o),
(113,91,o),
(113,304,cs),
(113,386,ls),
(113,598,o),
(213,685,o),
(350,685,cs),
(487,685,o),
(586,598,o),
(586,386,cs),
(586,304,ls),
(586,97,o),
(505,14,o),
(350,14,cs)
);
}
);
width = 700;
},
{
associatedMasterId = m01;
layerId = "170B6BF0-A43A-4D8A-B9E3-1F717F6B66C4";
width = 600;
},
{
layerId = m002;
shapes = (
{
closed = 1;
nodes = (
(299,-1,l),
(299,-17,ls),
(299,-163,o),
(402,-228,o),
(495,-228,cs),
(569,-228,o),
(647,-189,o),
(647,-99,c),
(561,-99,l),
(561,-162,o),
(536,-203,o),
(477,-203,cs),
(395,-203,o),
(402,-128,o),
(402,-17,cs),
(402,-1,l)
);
},
{
closed = 1;
nodes = (
(500,-16,o),
(670,75,o),
(670,332,cs),
(670,368,ls),
(670,623,o),
(500,715,o),
(350,715,cs),
(200,715,o),
(30,623,o),
(30,368,cs),
(30,332,ls),
(30,75,o),
(200,-16,o),
(350,-16,cs)
);
},
{
closed = 1;
nodes = (
(213,14,o),
(113,91,o),
(113,304,cs),
(113,386,ls),
(113,598,o),
(213,685,o),
(350,685,cs),
(487,685,o),
(586,598,o),
(586,386,cs),
(586,304,ls),
(586,97,o),
(505,14,o),
(350,14,cs)
);
}
);
width = 700;
}
);
unicode = 81;
},
{
glyphname = R;
layers = (
{
layerId = m01;
shapes = (
{
closed = 1;
nodes = (
(65,700,l),
(65,0,l),
(147,0,l),
(147,700,l)
);
},
{
closed = 1;
nodes = (
(285,670,l),
(402,670,o),
(422,600,o),
(422,513,cs),
(422,486,ls),
(422,384,o),
(402,304,o),
(285,304,cs),
(96,304,l),
(96,274,l),
(285,274,ls),
(415,274,o),
(505,349,o),
(505,494,cs),
(505,626,o),
(415,700,o),
(285,700,c)
);
},
{
closed = 1;
nodes = (
(96,670,l),
(285,670,l),
(285,700,l),
(96,700,l)
);
},
{
closed = 1;
nodes = (
(431,0,l),
(523,0,l),
(353,282,l),
(267,279,l)
);
}
);
width = 575;
},
{
layerId = m002;
shapes = (
{
closed = 1;
nodes = (
(65,700,l),
(65,0,l),
(147,0,l),
(147,700,l)
);
},
{
closed = 1;
nodes = (
(285,670,l),
(402,670,o),
(422,600,o),
(422,513,cs),
(422,486,ls),
(422,384,o),
(402,304,o),
(285,304,cs),
(96,304,l),
(96,274,l),
(285,274,ls),
(415,274,o),
(505,349,o),
(505,494,cs),
(505,626,o),
(415,700,o),
(285,700,c)
);
},
{
closed = 1;
nodes = (
(96,670,l),
(285,670,l),
(285,700,l),
(96,700,l)
);
},
{
closed = 1;
nodes = (
(431,0,l),
(523,0,l),
(353,282,l),
(267,279,l)
);
}
);
width = 575;
}
);
unicode = 82;
},
{
glyphname = S;
layers = (
{
layerId = m01;
shapes = (
{
closed = 1;
nodes = (
(483,545,l),
(483,691,o),
(327,716,o),
(264,716,cs),
(179,716,o),
(47,658,o),
(47,521,cs),
(47,409,o),
(181,363,o),
(225,340,cs),
(269,317,ls),
(307,297,o),
(458,224,o),
(458,133,cs),
(458,66,o),
(390,17,o),
(276,17,cs),
(176,17,o),
(104,78,o),
(104,187,c),
(30,187,l),
(30,41,o),
(182,-16,o),
(282,-16,cs),
(399,-16,o),
(514,46,o),
(514,162,cs),
(514,291,o),
(369,352,o),
(305,384,cs),
(265,404,ls),
(225,424,o),
(102,481,o),
(102,559,cs),
(102,627,o),
(175,684,o),
(264,684,cs),
(374,684,o),
(407,621,o),
(407,545,c)
);
}
);
width = 538;
},
{
layerId = m002;
shapes = (
{
closed = 1;
nodes = (
(483,545,l),
(483,691,o),
(327,716,o),
(264,716,cs),
(179,716,o),
(47,658,o),
(47,521,cs),
(47,413,o),
(181,363,o),
(225,340,cs),
(269,317,ls),
(307,297,o),
(458,224,o),
(458,133,cs),
(458,66,o),
(390,17,o),
(276,17,cs),
(176,17,o),
(104,78,o),
(104,187,c),
(30,187,l),
(30,41,o),
(182,-16,o),
(282,-16,cs),
(399,-16,o),
(514,46,o),
(514,162,cs),
(514,285,o),
(369,352,o),
(305,384,cs),
(265,404,ls),
(225,424,o),
(102,481,o),
(102,559,cs),
(102,627,o),
(175,684,o),
(264,684,cs),
(374,684,o),
(407,621,o),
(407,545,c)
);
}
);
width = 538;
}
);
unicode = 83;
},
{
glyphname = T;
layers = (
{
layerId = m01;
shapes = (
{
closed = 1;
nodes = (
(30,669,l),
(570,669,l),
(570,700,l),
(30,700,l)
);
},
{
closed = 1;
nodes = (
(260,0,l),
(342,0,l),
(342,700,l),
(260,700,l)
);
}
);
width = 600;
},
{
layerId = m002;
shapes = (
{
closed = 1;
nodes = (
(30,669,l),
(570,669,l),
(570,700,l),
(30,700,l)
);
},
{
closed = 1;
nodes = (
(260,0,l),
(342,0,l),
(342,700,l),
(260,700,l)
);
}
);
width = 600;
}
);
unicode = 84;
},
{
glyphname = U;
layers = (
{
layerId = m01;
shapes = (
{
closed = 1;
nodes = (
(588,700,l),
(588,274,ls),
(588,68,o),
(465,20,o),
(340,20,cs),
(243,20,o),
(143,71,o),
(143,274,cs),
(143,700,l),
(60,700,l),
(60,292,ls),
(60,45,o),
(237,-16,o),
(336,-16,cs),
(457,-16,o),
(624,25,o),
(624,272,c),
(624,700,l)
);
}
);
width = 684;
},
{
layerId = m002;
shapes = (
{
closed = 1;
nodes = (
(588,700,l),
(588,274,ls),
(588,68,o),
(465,20,o),
(340,20,cs),
(243,20,o),
(143,71,o),
(143,274,cs),
(143,700,l),
(60,700,l),
(60,292,ls),
(60,45,o),
(237,-16,o),
(336,-16,cs),
(457,-16,o),
(624,25,o),
(624,272,c),
(624,700,l)
);
}
);
width = 684;
}
);
unicode = 85;
},
{
glyphname = V;
layers = (
{
layerId = m01;
shapes = (
{
closed = 1;
nodes = (
(385,0,l),
(117,700,l),
(40,700,l),
(308,0,l)
);
},
{
closed = 1;
nodes = (
(343,0,l),
(385,0,l),
(655,700,l),
(605,700,l)
);
}
);
width = 695;
},
{
layerId = m002;
shapes = (
{
closed = 1;
nodes = (
(390,0,l),
(122,700,l),
(40,700,l),
(308,0,l)
);
},
{
closed = 1;
nodes = (
(348,0,l),
(390,0,l),
(660,700,l),
(618,700,l)
);
}
);
width = 700;
}
);
unicode = 86;
},
{
glyphname = W;
layers = (
{
layerId = m01;
shapes = (
{
closed = 1;
nodes = (
(337,0,l),
(119,700,l),
(40,700,l),
(258,0,l)
);
},
{
closed = 1;
nodes = (
(295,0,l),
(337,0,l),
(557,700,l),
(515,700,l)
);
},
{
closed = 1;
nodes = (
(775,0,l),
(557,700,l),
(498,636,l),
(696,0,l)
);
},
{
closed = 1;
nodes = (
(733,0,l),
(775,0,l),
(995,700,l),
(953,700,l)
);
}
);
width = 1035;
},
{
layerId = m002;
shapes = (
{
closed = 1;
nodes = (
(340,0,l),
(122,700,l),
(40,700,l),
(258,0,l)
);
},
{
closed = 1;
nodes = (
(298,0,l),
(340,0,l),
(560,700,l),
(518,700,l)
);
},
{
closed = 1;
nodes = (
(778,0,l),
(560,700,l),
(498,636,l),
(696,0,l)
);
},
{
closed = 1;
nodes = (
(736,0,l),
(778,0,l),
(998,700,l),
(956,700,l)
);
}
);
width = 1038;
}
);
unicode = 87;
},
{
glyphname = X;
layers = (
{
layerId = m01;
shapes = (
{
closed = 1;
nodes = (
(685,0,l),
(177,700,l),
(83,700,l),
(591,0,l)
);
},
{
closed = 1;
nodes = (
(389,352,l),
(665,700,l),
(613,700,l),
(363,387,l)
);
},
{
closed = 1;
nodes = (
(353,387,l),
(45,0,l),
(101,0,l),
(379,352,l)
);
}
);
width = 730;
},
{
layerId = m002;
shapes = (
{
closed = 1;
nodes = (
(685,0,l),
(177,700,l),
(75,700,l),
(583,0,l)
);
},
{
closed = 1;
nodes = (
(389,352,l),
(665,700,l),
(613,700,l),
(363,387,l)
);
},
{
closed = 1;
nodes = (
(353,387,l),
(45,0,l),
(101,0,l),
(379,352,l)
);
}
);
width = 730;
}
);
unicode = 88;
},
{
glyphname = Y;
layers = (
{
layerId = m01;
shapes = (
{
closed = 1;
nodes = (
(344,264,l),
(106,700,l),
(30,700,l),
(268,264,l)
);
},
{
closed = 1;
nodes = (
(350,0,l),
(350,275,l),
(268,275,l),
(268,0,l)
);
},
{
closed = 1;
nodes = (
(350,264,l),
(590,700,l),
(544,700,l),
(308,264,l)
);
}
);
width = 620;
},
{
layerId = m002;
shapes = (
{
closed = 1;
nodes = (
(350,264,l),
(112,700,l),
(30,700,l),
(268,264,l)
);
},
{
closed = 1;
nodes = (
(350,0,l),
(350,275,l),
(268,275,l),
(268,0,l)
);
},
{
closed = 1;
nodes = (
(350,264,l),
(590,700,l),
(544,700,l),
(308,264,l)
);
}
);
width = 620;
}
);
unicode = 89;
},
{
glyphname = Z;
layers = (
{
layerId = m01;
shapes = (
{
closed = 1;
nodes = (
(50,0,l),
(600,0,l),
(600,36,l),
(140,36,l),
(570,664,l),
(570,700,l),
(51,700,l),
(51,664,l),
(481,664,l),
(51,36,l)
);
}
);
width = 650;
},
{
layerId = m002;
shapes = (
{
closed = 1;
nodes = (
(50,0,l),
(600,0,l),
(600,36,l),
(145,36,l),
(570,664,l),
(570,700,l),
(51,700,l),
(51,664,l),
(476,664,l),
(51,36,l)
);
}
);
width = 650;
}
);
unicode = 90;
},
{
glyphname = a;
lastChange = "2025-06-27 16:25:12 +0000";
layers = (
{
layerId = m01;
shapes = (
{
closed = 1;
nodes = (
(65,38,o),
(148,-16,o),
(241,-16,cs),
(292,-16,o),
(351,-1,o),
(397,40,c),
(397,0,l),
(475,0,l),
(475,268,l),
(475,331,l),
(475,471,o),
(387,515,o),
(286,515,cs),
(199,515,o),
(107,470,o),
(107,364,c),
(188,364,l),
(188,440,o),
(216,487,o),
(286,487,cs),
(373,487,o),
(393,433,o),
(393,330,c),
(393,281,l),
(336,281,ls),
(166,281,o),
(65,247,o),
(65,132,cs)
);
},
{
closed = 1;
nodes = (
(393,69,o),
(337,13,o),
(268,13,cs),
(205,13,o),
(148,54,o),
(148,134,cs),
(148,218,o),
(189,251,o),
(336,251,cs),
(393,251,l),
(393,115,ls)
);
}
);
width = 540;
},
{
associatedMasterId = m01;
layerId = "170B6BF0-A43A-4D8A-B9E3-1F717F6B66C4";
width = 600;
},
{
layerId = m002;
shapes = (
{
closed = 1;
nodes = (
(65,13,o),
(135,-16,o),
(291,-16,cs),
(342,-16,o),
(401,-1,o),
(447,40,c),
(447,0,l),
(575,0,l),
(575,268,l),
(575,331,l),
(575,471,o),
(437,515,o),
(336,515,cs),
(249,515,o),
(107,470,o),
(107,364,c),
(238,364,l),
(238,440,o),
(266,487,o),
(336,487,cs),
(423,487,o),
(443,433,o),
(443,330,c),
(443,281,l),
(386,281,ls),
(133,281,o),
(65,249,o),
(65,132,cs)
);
},
{
closed = 1;
nodes = (
(443,69,o),
(387,13,o),
(318,13,cs),
(255,13,o),
(198,44,o),
(198,134,cs),
(198,228,o),
(259,251,o),
(386,251,cs),
(443,251,l),
(443,115,ls)
);
}
);
width = 640;
}
);
unicode = 97;
},
{
glyphname = b;
lastChange = "2025-06-27 16:25:12 +0000";
layers = (
{
layerId = m01;
shapes = (
{
closed = 1;
nodes = (
(65,760,l),
(65,0,l),
(142,0,l),
(142,34,l),
(182,0,o),
(236,-16,o),
(285,-16,cs),
(385,-16,o),
(505,66,o),
(505,250,cs),
(505,436,o),
(385,516,o),
(285,516,cs),
(172,516,o),
(147,435,o),
(147,450,cs),
(147,760,l)
);
},
{
closed = 1;
nodes = (
(372,488,o),
(422,395,o),
(422,263,cs),
(422,227,ls),
(422,105,o),
(372,12,o),
(285,12,cs),
(176,12,o),
(147,63,o),
(147,125,c),
(147,362,ls),
(147,428,o),
(209,488,o),
(285,488,cs)
);
}
);
width = 545;
},
{
layerId = m002;
shapes = (
{
closed = 1;
nodes = (
(65,760,l),
(65,0,l),
(197,0,l),
(197,30,l),
(237,-2,o),
(286,-16,o),
(335,-16,cs),
(435,-16,o),
(605,16,o),
(605,250,cs),
(605,486,o),
(455,516,o),
(355,516,cs),
(242,516,o),
(197,435,o),
(197,450,cs),
(197,760,l)
);
},
{
closed = 1;
nodes = (
(422,488,o),
(472,445,o),
(472,303,cs),
(472,187,ls),
(472,55,o),
(422,12,o),
(335,12,cs),
(226,12,o),
(197,64,o),
(197,125,c),
(197,362,ls),
(197,428,o),
(259,488,o),
(335,488,cs)
);
}
);
width = 645;
}
);
unicode = 98;
},
{
glyphname = c;
lastChange = "2025-06-27 16:25:12 +0000";
layers = (
{
layerId = m01;
shapes = (
{
closed = 1;
nodes = (
(419,155,l),
(419,70,o),
(375,12,o),
(280,12,cs),
(173,12,o),
(123,105,o),
(123,227,cs),
(123,263,ls),
(123,395,o),
(173,488,o),
(280,488,cs),
(378,488,o),
(422,425,o),
(422,328,c),
(501,328,l),
(501,459,o),
(392,516,o),
(280,516,cs),
(150,516,o),
(40,436,o),
(40,250,cs),
(40,66,o),
(150,-16,o),
(280,-16,cs),
(387,-16,o),
(497,38,o),
(497,155,c)
);
}
);
width = 541;
},
{
layerId = m002;
shapes = (
{
closed = 1;
nodes = (
(469,155,l),
(469,60,o),
(425,12,o),
(330,12,cs),
(223,12,o),
(173,60,o),
(173,227,cs),
(173,263,ls),
(173,435,o),
(223,488,o),
(330,488,cs),
(428,488,o),
(472,435,o),
(472,328,c),
(601,328,l),
(601,459,o),
(442,516,o),
(330,516,cs),
(200,516,o),
(40,456,o),
(40,250,cs),
(40,46,o),
(200,-16,o),
(330,-16,cs),
(437,-16,o),
(597,38,o),
(597,155,c)
);
}
);
width = 641;
}
);
unicode = 99;
},
{
glyphname = d;
lastChange = "2025-06-27 16:25:12 +0000";
layers = (
{
layerId = m01;
shapes = (
{
closed = 1;
nodes = (
(398,450,l),
(381,478,o),
(352,516,o),
(260,516,cs),
(160,516,o),
(40,436,o),
(40,250,cs),
(40,66,o),
(160,-16,o),
(260,-16,cs),
(309,-16,o),
(361,1,o),
(401,35,c),
(401,0,l),
(480,0,l),
(480,760,l),
(398,760,l)
);
},
{
closed = 1;
nodes = (
(336,488,o),
(398,428,o),
(398,362,cs),
(398,125,l),
(393,63,o),
(369,12,o),
(260,12,cs),
(173,12,o),
(123,105,o),
(123,227,cs),
(123,263,ls),
(123,395,o),
(173,488,o),
(260,488,cs)
);
},
{
closed = 1;
nodes = (
(260,14,l),
(260,12,l)
);
}
);
width = 545;
},
{
layerId = m002;
shapes = (
{
closed = 1;
nodes = (
(448,433,l),
(448,418,o),
(431,516,o),
(280,516,cs),
(180,516,o),
(40,466,o),
(40,250,cs),
(40,36,o),
(180,-16,o),
(280,-16,cs),
(359,-16,o),
(408,-2,o),
(448,30,c),
(448,0,l),
(580,0,l),
(580,760,l),
(448,760,l)
);
},
{
closed = 1;
nodes = (
(386,488,o),
(448,428,o),
(448,362,cs),
(448,125,l),
(443,63,o),
(399,12,o),
(310,12,cs),
(223,12,o),
(173,105,o),
(173,227,cs),
(173,263,ls),
(173,415,o),
(223,488,o),
(320,488,cs)
);
},
{
closed = 1;
nodes = (
(310,14,l),
(310,12,l)
);
}
);
width = 645;
}
);
unicode = 100;
},
{
glyphname = e;
lastChange = "2025-06-27 16:36:43 +0000";
layers = (
{
layerId = m01;
shapes = (
{
closed = 1;
nodes = (
(434,248,l),
(434,280,l),
(100,280,l),
(100,248,l)
);
},
{
closed = 1;
nodes = (
(413,176,l),
(413,80,o),
(382,12,o),
(280,12,cs),
(173,12,o),
(123,105,o),
(123,227,cs),
(123,263,ls),
(123,395,o),
(173,488,o),
(270,488,cs),
(378,488,o),
(417,400,o),
(417,248,c),
(500,248,l),
(500,428,o),
(398,516,o),
(270,516,cs),
(150,516,o),
(40,436,o),
(40,250,cs),
(40,66,o),
(150,-16,o),
(280,-16,cs),
(393,-16,o),
(492,44,o),
(492,176,c)
);
}
);
width = 540;
},
{
layerId = m002;
shapes = (
{
closed = 1;
nodes = (
(484,248,l),
(484,280,l),
(150,280,l),
(150,248,l)
);
},
{
closed = 1;
nodes = (
(467,176,l),
(467,70,o),
(432,12,o),
(330,12,cs),
(223,12,o),
(173,70,o),
(173,237,cs),
(173,273,ls),
(173,430,o),
(223,488,o),
(320,488,cs),
(428,488,o),
(467,430,o),
(467,248,c),
(600,248,l),
(600,458,o),
(448,516,o),
(320,516,cs),
(200,516,o),
(40,456,o),
(40,250,cs),
(40,46,o),
(200,-16,o),
(330,-16,cs),
(443,-16,o),
(600,24,o),
(600,176,c)
);
}
);
width = 640;
}
);
unicode = 101;
},
{
glyphname = f;
lastChange = "2025-06-27 16:57:03 +0000";
layers = (
{
layerId = m01;
shapes = (
{
closed = 1;
nodes = (
(354,748,o),
(383,701,o),
(383,625,c),
(461,625,l),
(461,731,o),
(375,776,o),
(293,776,cs),
(221,776,o),
(118,758,o),
(118,501,cs),
(118,0,l),
(200,0,l),
(200,500,ls),
(200,714,o),
(236,748,o),
(293,748,cs)
);
},
{
closed = 1;
nodes = (
(40,470,l),
(278,470,l),
(278,500,l),
(40,500,l)
);
}
);
width = 318;
},
{
layerId = m002;
shapes = (
{
closed = 1;
nodes = (
(400,748,o),
(407,711,o),
(407,625,c),
(535,625,l),
(535,731,o),
(425,776,o),
(343,776,cs),
(271,776,o),
(118,758,o),
(118,501,cs),
(118,0,l),
(250,0,l),
(250,625,ls),
(250,711,o),
(270,748,o),
(329,748,cs)
);
},
{
closed = 1;
nodes = (
(40,470,l),
(358,470,l),
(358,500,l),
(40,500,l)
);
}
);
width = 398;
}
);
unicode = 102;
},
{
glyphname = g;
lastChange = "2025-06-27 16:39:57 +0000";
layers = (
{
layerId = m01;
shapes = (
{
closed = 1;
nodes = (
(390,244,o),
(370,157,o),
(263,157,cs),
(156,157,o),
(136,244,o),
(136,316,cs),
(136,336,ls),
(136,398,o),
(156,485,o),
(263,485,cs),
(370,485,o),
(390,398,o),
(390,336,cs),
(390,316,ls)
);
},
{
closed = 1;
nodes = (
(53,209,o),
(143,127,o),
(263,127,cs),
(383,127,o),
(473,209,o),
(473,324,cs),
(473,328,ls),
(473,433,o),
(383,515,o),
(263,515,cs),
(143,515,o),
(53,433,o),
(53,328,cs),
(53,324,ls)
);
},
{
closed = 1;
nodes = (
(39,123,o),
(40,49,o),
(135,10,c),
(53,-35,o),
(40,-74,o),
(40,-100,cs),
(40,-211,o),
(215,-234,o),
(306,-234,cs),
(404,-234,o),
(536,-181,o),
(536,-85,cs),
(536,-25,o),
(500,47,o),
(369,61,cs),
(318,66,o),
(266,70,o),
(215,70,cs),
(124,70,o),
(96,113,o),
(144,179,c),
(110,197,l)
);
},
{
closed = 1;
nodes = (
(239,-199,o),
(128,-187,o),
(128,-109,cs),
(128,-64,o),
(163,-19,o),
(199,-2,c),
(255,-2,o),
(311,-3,o),
(367,-13,cs),
(452,-28,o),
(496,-55,o),
(496,-105,cs),
(496,-159,o),
(385,-199,o),
(309,-199,cs)
);
},
{
closed = 1;
nodes = (
(361,461,l),
(517,431,l),
(517,500,l),
(340,500,l)
);
}
);
width = 546;
},
{
layerId = m002;
shapes = (
{
closed = 1;
nodes = (
(410,244,o),
(390,157,o),
(283,157,cs),
(176,157,o),
(156,244,o),
(156,316,cs),
(156,336,ls),
(156,398,o),
(176,485,o),
(283,485,cs),
(390,485,o),
(410,398,o),
(410,336,cs),
(410,316,ls)
);
},
{
closed = 1;
nodes = (
(23,189,o),
(163,127,o),
(283,127,cs),
(403,127,o),
(543,189,o),
(543,324,cs),
(543,328,ls),
(543,463,o),
(403,515,o),
(283,515,cs),
(163,515,o),
(23,463,o),
(23,328,cs),
(23,324,ls)
);
},
{
closed = 1;
nodes = (
(59,123,o),
(60,49,o),
(155,10,c),
(73,-19,o),
(10,-48,o),
(10,-100,cs),
(10,-211,o),
(185,-234,o),
(326,-234,cs),
(424,-234,o),
(606,-217,o),
(606,-101,cs),
(606,-1,o),
(538,43,o),
(407,57,cs),
(356,62,o),
(304,66,o),
(253,66,cs),
(162,66,o),
(116,113,o),
(164,179,c),
(130,197,l)
);
},
{
closed = 1;
nodes = (
(219,-199,o),
(148,-187,o),
(148,-109,cs),
(148,-64,o),
(183,-19,o),
(219,-2,c),
(275,-2,o),
(331,-3,o),
(387,-13,cs),
(472,-28,o),
(519,-55,o),
(519,-105,cs),
(519,-180,o),
(425,-199,o),
(329,-199,cs)
);
},
{
closed = 1;
nodes = (
(431,461,l),
(587,431,l),
(587,500,l),
(360,500,l)
);
}
);
width = 616;
}
);
unicode = 103;
},
{
glyphname = h;
lastChange = "2025-06-27 16:25:12 +0000";
layers = (
{
layerId = m01;
shapes = (
{
closed = 1;
nodes = (
(147,0,l),
(147,760,l),
(65,760,l),
(65,0,l)
);
},
{
closed = 1;
nodes = (
(495,0,l),
(495,352,ls),
(495,469,o),
(422,516,o),
(305,516,cs),
(209,516,o),
(147,446,o),
(147,430,cs),
(147,362,l),
(147,428,o),
(220,486,o),
(295,486,cs),
(352,486,o),
(413,458,o),
(413,352,cs),
(413,0,l)
);
}
);
width = 560;
},
{
layerId = m002;
shapes = (
{
closed = 1;
nodes = (
(197,0,l),
(197,760,l),
(65,760,l),
(65,0,l)
);
},
{
closed = 1;
nodes = (
(575,0,l),
(575,352,ls),
(575,469,o),
(472,516,o),
(355,516,cs),
(254,516,o),
(197,446,o),
(197,430,cs),
(197,362,l),
(197,428,o),
(262,486,o),
(325,486,cs),
(389,486,o),
(443,458,o),
(443,352,cs),
(443,0,l)
);
}
);
width = 640;
}
);
unicode = 104;
},
{
glyphname = i;
lastChange = "2025-06-27 16:25:12 +0000";
layers = (
{
layerId = m01;
shapes = (
{
closed = 1;
nodes = (
(152,0,l),
(152,500,l),
(70,500,l),
(70,0,l)
);
},
{
closed = 1;
nodes = (
(141,568,o),
(158,585,o),
(158,615,cs),
(158,645,o),
(141,661,o),
(112,661,cs),
(82,661,o),
(65,645,o),
(65,615,cs),
(65,585,o),
(82,568,o),
(112,568,cs)
);
}
);
width = 223;
},
{
layerId = m002;
shapes = (
{
closed = 1;
nodes = (
(204,0,l),
(204,500,l),
(70,500,l),
(70,0,l)
);
},
{
closed = 1;
nodes = (
(187,568,o),
(210,585,o),
(210,615,cs),
(210,645,o),
(187,661,o),
(138,661,cs),
(88,661,o),
(65,645,o),
(65,615,cs),
(65,585,o),
(88,568,o),
(138,568,cs)
);
}
);
width = 223;
}
);
unicode = 105;
},
{
glyphname = j;
lastChange = "2025-06-27 16:25:12 +0000";
layers = (
{
layerId = m01;
shapes = (
{
closed = 1;
nodes = (
(70,20,ls),
(70,-112,o),
(79,-200,o),
(2,-200,cs),
(-66,-200,o),
(-66,-153,o),
(-66,-77,c),
(-144,-77,l),
(-144,-183,o),
(-93,-228,o),
(2,-228,cs),
(92,-228,o),
(152,-156,o),
(152,19,cs),
(152,500,l),
(70,500,l)
);
},
{
closed = 1;
nodes = (
(141,568,o),
(158,585,o),
(158,615,cs),
(158,645,o),
(141,661,o),
(112,661,cs),
(82,661,o),
(65,645,o),
(65,615,cs),
(65,585,o),
(82,568,o),
(112,568,cs)
);
}
);
width = 223;
},
{
layerId = m002;
shapes = (
{
closed = 1;
nodes = (
(70,20,ls),
(70,-112,o),
(79,-200,o),
(2,-200,cs),
(-58,-200,o),
(-56,-153,o),
(-56,-77,c),
(-164,-77,l),
(-164,-183,o),
(-93,-228,o),
(2,-228,cs),
(92,-228,o),
(202,-157,o),
(202,19,cs),
(202,500,l),
(70,500,l)
);
},
{
closed = 1;
nodes = (
(187,568,o),
(210,585,o),
(210,615,cs),
(210,645,o),
(187,661,o),
(138,661,cs),
(88,661,o),
(65,645,o),
(65,615,cs),
(65,585,o),
(88,568,o),
(138,568,cs)
);
}
);
width = 223;
}
);
unicode = 106;
},
{
glyphname = k;
lastChange = "2025-06-27 16:25:12 +0000";
layers = (
{
layerId = m01;
shapes = (
{
closed = 1;
nodes = (
(116,202,l),
(423,501,l),
(380,501,l),
(73,202,l)
);
},
{
closed = 1;
nodes = (
(65,760,l),
(65,0,l),
(147,0,l),
(147,760,l)
);
},
{
closed = 1;
nodes = (
(184,288,l),
(375,0,l),
(457,0,l),
(236,338,l)
);
}
);
width = 467;
},
{
background = {
shapes = (
{
closed = 0;
nodes = (
(557,0,l),
(336,338,l)
);
}
);
};
layerId = m002;
shapes = (
{
closed = 1;
nodes = (
(166,202,l),
(473,501,l),
(430,501,l),
(123,202,l)
);
},
{
closed = 1;
nodes = (
(65,760,l),
(65,0,l),
(197,0,l),
(197,760,l)
);
},
{
closed = 1;
nodes = (
(234,288,l),
(425,0,l),
(557,0,l),
(316,369,l)
);
}
);
width = 567;
}
);
unicode = 107;
},
{
glyphname = l;
lastChange = "2025-06-27 16:25:12 +0000";
layers = (
{
layerId = m01;
shapes = (
{
closed = 1;
nodes = (
(147,0,l),
(147,760,l),
(65,760,l),
(65,0,l)
);
}
);
width = 212;
},
{
layerId = m002;
shapes = (
{
closed = 1;
nodes = (
(197,0,l),
(197,760,l),
(65,760,l),
(65,0,l)
);
}
);
width = 262;
}
);
unicode = 108;
},
{
glyphname = m;
lastChange = "2025-06-27 16:25:12 +0000";
layers = (
{
layerId = m01;
shapes = (
{
closed = 1;
nodes = (
(147,0,l),
(147,500,l),
(65,500,l),
(65,0,l)
);
},
{
closed = 1;
nodes = (
(481,0,l),
(481,352,ls),
(481,469,o),
(422,516,o),
(305,516,cs),
(209,516,o),
(147,446,o),
(147,430,cs),
(147,362,l),
(147,428,o),
(220,486,o),
(295,486,cs),
(352,486,o),
(399,458,o),
(399,352,cs),
(399,0,l)
);
},
{
closed = 1;
nodes = (
(829,0,l),
(829,352,ls),
(829,469,o),
(756,516,o),
(639,516,cs),
(543,516,o),
(476,442,o),
(473,416,c),
(481,362,l),
(481,430,o),
(554,486,o),
(629,486,cs),
(686,486,o),
(747,458,o),
(747,352,cs),
(747,0,l)
);
}
);
width = 894;
},
{
associatedMasterId = m01;
layerId = "170B6BF0-A43A-4D8A-B9E3-1F717F6B66C4";
width = 600;
},
{
layerId = m002;
shapes = (
{
closed = 1;
nodes = (
(197,0,l),
(197,500,l),
(65,500,l),
(65,0,l)
);
},
{
closed = 1;
nodes = (
(575,0,l),
(575,352,ls),
(575,469,o),
(472,516,o),
(355,516,cs),
(254,516,o),
(197,446,o),
(197,430,cs),
(197,362,l),
(197,428,o),
(262,486,o),
(325,486,cs),
(389,486,o),
(443,458,o),
(443,352,cs),
(443,0,l)
);
},
{
closed = 1;
nodes = (
(953,0,l),
(953,352,ls),
(953,469,o),
(850,516,o),
(733,516,cs),
(632,516,o),
(560,441,o),
(560,407,c),
(575,362,l),
(575,428,o),
(640,486,o),
(703,486,cs),
(767,486,o),
(821,458,o),
(821,352,cs),
(821,0,l)
);
}
);
width = 1018;
}
);
unicode = 109;
},
{
glyphname = n;
lastChange = "2025-06-27 16:25:12 +0000";
layers = (
{
layerId = m01;
shapes = (
{
closed = 1;
nodes = (
(147,0,l),
(147,500,l),
(65,500,l),
(65,0,l)
);
},
{
closed = 1;
nodes = (
(495,0,l),
(495,352,ls),
(495,469,o),
(422,516,o),
(305,516,cs),
(209,516,o),
(147,446,o),
(147,430,cs),
(147,362,l),
(147,428,o),
(220,486,o),
(295,486,cs),
(352,486,o),
(413,458,o),
(413,352,cs),
(413,0,l)
);
}
);
width = 560;
},
{
associatedMasterId = m01;
layerId = "170B6BF0-A43A-4D8A-B9E3-1F717F6B66C4";
width = 600;
},
{
layerId = m002;
shapes = (
{
closed = 1;
nodes = (
(197,0,l),
(197,500,l),
(65,500,l),
(65,0,l)
);
},
{
closed = 1;
nodes = (
(575,0,l),
(575,352,ls),
(575,469,o),
(472,516,o),
(355,516,cs),
(254,516,o),
(197,446,o),
(197,430,cs),
(197,362,l),
(197,428,o),
(262,486,o),
(325,486,cs),
(389,486,o),
(443,458,o),
(443,352,cs),
(443,0,l)
);
}
);
width = 640;
}
);
unicode = 110;
},
{
glyphname = o;
lastChange = "2025-06-27 16:25:12 +0000";
layers = (
{
layerId = m01;
shapes = (
{
closed = 1;
nodes = (
(183,12,o),
(123,105,o),
(123,227,cs),
(123,263,ls),
(123,395,o),
(183,488,o),
(290,488,cs),
(397,488,o),
(457,395,o),
(457,263,cs),
(457,227,ls),
(457,105,o),
(397,12,o),
(290,12,cs)
);
},
{
closed = 1;
nodes = (
(40,66,o),
(170,-16,o),
(290,-16,cs),
(410,-16,o),
(540,66,o),
(540,250,cs),
(540,436,o),
(410,516,o),
(290,516,cs),
(170,516,o),
(40,436,o),
(40,250,cs)
);
}
);
width = 580;
},
{
associatedMasterId = m01;
layerId = "170B6BF0-A43A-4D8A-B9E3-1F717F6B66C4";
width = 600;
},
{
layerId = m002;
shapes = (
{
closed = 1;
nodes = (
(233,12,o),
(173,75,o),
(173,217,cs),
(173,273,ls),
(173,425,o),
(233,488,o),
(340,488,cs),
(447,488,o),
(507,425,o),
(507,273,cs),
(507,217,ls),
(507,75,o),
(447,12,o),
(340,12,cs)
);
},
{
closed = 1;
nodes = (
(40,16,o),
(220,-16,o),
(340,-16,cs),
(460,-16,o),
(640,16,o),
(640,250,cs),
(640,486,o),
(460,516,o),
(340,516,cs),
(220,516,o),
(40,486,o),
(40,250,cs)
);
}
);
width = 680;
}
);
unicode = 111;
},
{
glyphname = p;
lastChange = "2025-06-27 16:25:12 +0000";
layers = (
{
layerId = m01;
shapes = (
{
closed = 1;
nodes = (
(65,500,l),
(65,-212,l),
(147,-212,l),
(147,30,l),
(187,-2,o),
(236,-16,o),
(285,-16,cs),
(385,-16,o),
(505,66,o),
(505,250,cs),
(505,436,o),
(385,516,o),
(285,516,cs),
(194,516,o),
(151,448,o),
(147,430,c),
(147,500,l)
);
},
{
closed = 1;
nodes = (
(372,488,o),
(422,395,o),
(422,263,cs),
(422,227,ls),
(422,105,o),
(372,12,o),
(285,12,cs),
(176,12,o),
(147,63,o),
(147,125,c),
(147,362,ls),
(147,428,o),
(209,488,o),
(285,488,cs)
);
}
);
width = 545;
},
{
associatedMasterId = m01;
layerId = "170B6BF0-A43A-4D8A-B9E3-1F717F6B66C4";
width = 600;
},
{
layerId = m002;
shapes = (
{
closed = 1;
nodes = (
(65,495,l),
(65,-212,l),
(197,-212,l),
(197,30,l),
(237,-2,o),
(276,-16,o),
(335,-16,cs),
(475,-16,o),
(605,66,o),
(605,250,cs),
(605,436,o),
(495,516,o),
(355,516,cs),
(254,516,o),
(197,445,o),
(197,430,cs),
(197,495,l)
);
},
{
closed = 1;
nodes = (
(422,488,o),
(472,453,o),
(472,323,cs),
(472,177,ls),
(472,55,o),
(422,12,o),
(335,12,cs),
(226,12,o),
(202,63,o),
(197,125,c),
(197,362,ls),
(197,428,o),
(259,488,o),
(335,488,cs)
);
}
);
width = 645;
}
);
unicode = 112;
},
{
glyphname = q;
lastChange = "2025-06-27 16:25:12 +0000";
layers = (
{
layerId = m01;
shapes = (
{
closed = 1;
nodes = (
(398,430,ls),
(398,415,o),
(351,512,o),
(260,516,cs),
(160,516,o),
(40,436,o),
(40,250,cs),
(40,66,o),
(160,-16,o),
(260,-16,cs),
(309,-16,o),
(358,-2,o),
(398,30,c),
(398,-212,l),
(480,-212,l),
(480,500,l),
(398,500,l)
);
},
{
closed = 1;
nodes = (
(336,488,o),
(398,428,o),
(398,362,cs),
(398,124,l),
(398,62,o),
(369,11,o),
(260,11,cs),
(173,11,o),
(123,104,o),
(123,226,cs),
(123,263,ls),
(123,395,o),
(173,488,o),
(260,488,cs)
);
}
);
width = 545;
},
{
associatedMasterId = m01;
layerId = "170B6BF0-A43A-4D8A-B9E3-1F717F6B66C4";
width = 600;
},
{
layerId = m002;
shapes = (
{
closed = 1;
nodes = (
(448,430,ls),
(448,415,o),
(416,516,o),
(300,516,cs),
(200,516,o),
(40,476,o),
(40,250,cs),
(40,26,o),
(210,-16,o),
(310,-16,cs),
(359,-16,o),
(408,-2,o),
(448,30,c),
(448,-212,l),
(580,-212,l),
(580,500,l),
(448,500,l)
);
},
{
closed = 1;
nodes = (
(386,488,o),
(448,408,o),
(448,342,cs),
(448,125,l),
(443,63,o),
(419,12,o),
(310,12,cs),
(223,12,o),
(173,55,o),
(173,177,cs),
(173,313,ls),
(173,445,o),
(223,488,o),
(310,488,cs)
);
}
);
width = 645;
}
);
unicode = 113;
},
{
glyphname = r;
lastChange = "2025-06-27 16:25:12 +0000";
layers = (
{
layerId = m01;
shapes = (
{
closed = 1;
nodes = (
(147,0,l),
(147,500,l),
(65,500,l),
(65,0,l)
);
},
{
closed = 1;
nodes = (
(147,428,o),
(196,486,o),
(261,486,cs),
(308,486,o),
(323,458,o),
(323,365,c),
(405,365,l),
(405,469,o),
(378,516,o),
(271,516,cs),
(185,516,o),
(147,446,o),
(147,430,c),
(147,362,l)
);
}
);
width = 425;
},
{
associatedMasterId = m01;
layerId = "170B6BF0-A43A-4D8A-B9E3-1F717F6B66C4";
width = 600;
},
{
layerId = m002;
shapes = (
{
closed = 1;
nodes = (
(197,0,l),
(197,500,l),
(65,500,l),
(65,0,l)
);
},
{
closed = 1;
nodes = (
(197,428,o),
(246,486,o),
(301,486,cs),
(358,486,o),
(373,458,o),
(373,365,c),
(505,365,l),
(505,469,o),
(478,516,o),
(352,516,cs),
(235,516,o),
(197,446,o),
(197,430,c),
(197,362,l)
);
}
);
width = 570;
}
);
unicode = 114;
},
{
glyphname = s;
lastChange = "2025-06-27 16:25:12 +0000";
layers = (
{
layerId = m01;
shapes = (
{
closed = 1;
nodes = (
(408,392,l),
(408,498,o),
(302,516,o),
(239,516,cs),
(164,516,o),
(62,474,o),
(62,374,cs),
(62,310,o),
(124,266,o),
(166,248,cs),
(251,211,ls),
(287,195,o),
(378,165,o),
(378,109,cs),
(378,39,o),
(291,16,o),
(241,16,cs),
(141,16,o),
(113,54,o),
(113,132,c),
(45,132,l),
(45,14,o),
(165,-16,o),
(252,-16,cs),
(322,-16,o),
(433,29,o),
(433,123,cs),
(433,231,o),
(344,254,o),
(304,272,cs),
(222,309,ls),
(186,325,o),
(120,346,o),
(120,402,cs),
(120,451,o),
(186,484,o),
(239,484,cs),
(310,484,o),
(341,447,o),
(341,392,c)
);
}
);
width = 478;
},
{
associatedMasterId = m01;
layerId = "170B6BF0-A43A-4D8A-B9E3-1F717F6B66C4";
width = 600;
},
{
layerId = m002;
shapes = (
{
closed = 1;
nodes = (
(438,392,l),
(438,498,o),
(300,516,o),
(221,516,cs),
(126,516,o),
(32,464,o),
(32,364,cs),
(32,272,o),
(95,232,o),
(156,214,cs),
(226,193,ls),
(266,181,o),
(388,157,o),
(388,95,cs),
(388,42,o),
(321,16,o),
(272,16,cs),
(166,16,o),
(133,68,o),
(133,132,c),
(15,132,l),
(15,14,o),
(164,-16,o),
(266,-16,cs),
(384,-16,o),
(453,49,o),
(453,143,cs),
(453,251,o),
(330,287,o),
(286,300,cs),
(216,321,ls),
(200,326,o),
(90,353,o),
(90,410,cs),
(90,457,o),
(142,485,o),
(207,485,cs),
(276,485,o),
(321,447,o),
(321,392,c)
);
}
);
width = 478;
}
);
unicode = 115;
},
{
glyphname = t;
lastChange = "2025-06-27 16:25:12 +0000";
layers = (
{
layerId = m01;
shapes = (
{
closed = 1;
nodes = (
(288,0,l),
(288,28,l),
(243,28,ls),
(171,30,o),
(170,85,o),
(170,214,cs),
(170,470,l),
(288,470,l),
(288,500,l),
(170,500,l),
(170,660,l),
(88,660,l),
(88,500,l),
(10,500,l),
(10,470,l),
(88,470,l),
(88,213,ls),
(88,41,o),
(155,1,o),
(243,0,cs)
);
}
);
width = 298;
},
{
associatedMasterId = m01;
layerId = "170B6BF0-A43A-4D8A-B9E3-1F717F6B66C4";
width = 600;
},
{
layerId = m002;
shapes = (
{
closed = 1;
nodes = (
(338,0,l),
(338,28,l),
(293,28,ls),
(221,30,o),
(220,85,o),
(220,214,cs),
(220,470,l),
(338,470,l),
(338,500,l),
(220,500,l),
(220,660,l),
(88,660,l),
(88,500,l),
(10,500,l),
(10,470,l),
(88,470,l),
(88,150,ls),
(88,12,o),
(205,1,o),
(293,0,cs)
);
}
);
width = 348;
}
);
unicode = 116;
},
{
glyphname = u;
lastChange = "2025-06-27 16:25:12 +0000";
layers = (
{
layerId = m01;
shapes = (
{
closed = 1;
nodes = (
(485,0,l),
(485,503,l),
(403,503,l),
(403,130,l),
(398,68,o),
(374,17,o),
(265,17,cs),
(208,17,o),
(147,45,o),
(147,151,cs),
(147,503,l),
(65,503,l),
(65,151,ls),
(65,60,o),
(104,-16,o),
(265,-16,cs),
(314,-16,o),
(363,3,o),
(403,35,c),
(403,0,l)
);
}
);
width = 550;
},
{
associatedMasterId = m01;
layerId = "170B6BF0-A43A-4D8A-B9E3-1F717F6B66C4";
width = 600;
},
{
layerId = m002;
shapes = (
{
closed = 1;
nodes = (
(575,0,l),
(575,500,l),
(443,500,l),
(443,138,l),
(443,72,o),
(378,14,o),
(315,14,cs),
(251,14,o),
(197,42,o),
(197,148,cs),
(197,500,l),
(65,500,l),
(65,148,ls),
(65,31,o),
(168,-16,o),
(285,-16,cs),
(386,-16,o),
(443,54,o),
(443,70,cs),
(443,0,l)
);
}
);
width = 640;
}
);
unicode = 117;
},
{
glyphname = v;
lastChange = "2025-06-27 16:25:12 +0000";
layers = (
{
layerId = m01;
shapes = (
{
closed = 1;
nodes = (
(290,0,l),
(112,500,l),
(25,500,l),
(203,0,l)
);
},
{
closed = 1;
nodes = (
(258,0,l),
(290,0,l),
(470,500,l),
(434,500,l)
);
}
);
width = 495;
},
{
associatedMasterId = m01;
layerId = "170B6BF0-A43A-4D8A-B9E3-1F717F6B66C4";
width = 600;
},
{
layerId = m002;
shapes = (
{
closed = 1;
nodes = (
(340,0,l),
(162,500,l),
(25,500,l),
(203,0,l)
);
},
{
closed = 1;
nodes = (
(308,0,l),
(340,0,l),
(520,500,l),
(484,500,l)
);
}
);
width = 545;
}
);
unicode = 118;
},
{
glyphname = w;
lastChange = "2025-06-27 16:25:12 +0000";
layers = (
{
layerId = m01;
shapes = (
{
closed = 1;
nodes = (
(260,0,l),
(102,500,l),
(15,500,l),
(173,0,l)
);
},
{
closed = 1;
nodes = (
(228,0,l),
(260,0,l),
(420,500,l),
(384,500,l)
);
},
{
closed = 1;
nodes = (
(578,0,l),
(420,500,l),
(384,500,l),
(360,422,l),
(491,0,l)
);
},
{
closed = 1;
nodes = (
(546,0,l),
(578,0,l),
(738,500,l),
(702,500,l)
);
}
);
width = 753;
},
{
associatedMasterId = m01;
layerId = "170B6BF0-A43A-4D8A-B9E3-1F717F6B66C4";
width = 600;
},
{
layerId = m002;
shapes = (
{
closed = 1;
nodes = (
(320,0,l),
(162,500,l),
(25,500,l),
(183,0,l)
);
},
{
closed = 1;
nodes = (
(288,0,l),
(320,0,l),
(480,500,l),
(444,500,l)
);
},
{
closed = 1;
nodes = (
(688,0,l),
(530,500,l),
(444,500,l),
(420,422,l),
(551,0,l)
);
},
{
closed = 1;
nodes = (
(656,0,l),
(688,0,l),
(848,500,l),
(812,500,l)
);
}
);
width = 873;
}
);
unicode = 119;
},
{
glyphname = x;
lastChange = "2025-06-27 16:25:12 +0000";
layers = (
{
layerId = m01;
shapes = (
{
closed = 1;
nodes = (
(533,0,l),
(134,500,l),
(25,500,l),
(424,0,l)
);
},
{
closed = 1;
nodes = (
(306,273,l),
(487,500,l),
(446,500,l),
(265,273,l)
);
},
{
closed = 1;
nodes = (
(253,273,l),
(35,0,l),
(76,0,l),
(294,273,l)
);
}
);
width = 558;
},
{
associatedMasterId = m01;
layerId = "170B6BF0-A43A-4D8A-B9E3-1F717F6B66C4";
width = 600;
},
{
layerId = m002;
shapes = (
{
closed = 1;
nodes = (
(583,0,l),
(184,500,l),
(25,500,l),
(424,0,l)
);
},
{
closed = 1;
nodes = (
(339,273,l),
(520,500,l),
(481,500,l),
(300,273,l)
);
},
{
closed = 1;
nodes = (
(283,273,l),
(65,0,l),
(104,0,l),
(322,273,l)
);
}
);
width = 608;
}
);
unicode = 120;
},
{
glyphname = y;
lastChange = "2025-06-27 16:25:12 +0000";
layers = (
{
layerId = m01;
shapes = (
{
closed = 1;
nodes = (
(296,0,l),
(112,500,l),
(25,500,l),
(235,-76,l)
);
},
{
closed = 1;
nodes = (
(76,-212,l),
(195,-212,o),
(233,-167,o),
(297,0,cs),
(489,500,l),
(450,500,l),
(261,0,ls),
(215,-121,o),
(206,-181,o),
(76,-180,c)
);
}
);
width = 511;
},
{
associatedMasterId = m01;
layerId = "170B6BF0-A43A-4D8A-B9E3-1F717F6B66C4";
width = 600;
},
{
layerId = m002;
shapes = (
{
closed = 1;
nodes = (
(296,0,l),
(112,500,l),
(-25,500,l),
(209,-139,l)
);
},
{
closed = 1;
nodes = (
(76,-212,l),
(195,-212,o),
(233,-167,o),
(297,0,cs),
(489,500,l),
(450,500,l),
(261,0,ls),
(215,-121,o),
(206,-181,o),
(76,-180,c)
);
}
);
width = 511;
}
);
unicode = 121;
},
{
glyphname = z;
lastChange = "2025-06-27 16:25:12 +0000";
layers = (
{
layerId = m01;
shapes = (
{
closed = 1;
nodes = (
(490,32,l),
(90,32,l),
(90,0,l),
(490,0,l)
);
},
{
closed = 1;
nodes = (
(465,500,l),
(91,500,l),
(91,470,l),
(465,470,l)
);
},
{
closed = 1;
nodes = (
(368,470,l),
(91,32,l),
(188,32,l),
(465,470,l)
);
}
);
width = 580;
},
{
associatedMasterId = m01;
layerId = "170B6BF0-A43A-4D8A-B9E3-1F717F6B66C4";
width = 600;
},
{
layerId = m002;
shapes = (
{
closed = 1;
nodes = (
(520,32,l),
(90,32,l),
(90,0,l),
(520,0,l)
);
},
{
closed = 1;
nodes = (
(515,500,l),
(91,500,l),
(91,470,l),
(515,470,l)
);
},
{
closed = 1;
nodes = (
(368,470,l),
(91,32,l),
(238,32,l),
(515,470,l)
);
}
);
width = 580;
}
);
unicode = 122;
},
{
glyphname = period;
lastChange = "2025-06-26 19:17:18 +0000";
layers = (
{
layerId = m01;
shapes = (
{
closed = 1;
nodes = (
(111,-16,o),
(132,4,o),
(132,40,cs),
(132,76,o),
(111,96,o),
(76,96,cs),
(40,96,o),
(20,76,o),
(20,40,cs),
(20,4,o),
(40,-16,o),
(76,-16,cs)
);
}
);
width = 152;
},
{
layerId = m002;
shapes = (
{
closed = 1;
nodes = (
(111,-16,o),
(132,4,o),
(132,40,cs),
(132,76,o),
(111,96,o),
(76,96,cs),
(40,96,o),
(20,76,o),
(20,40,cs),
(20,4,o),
(40,-16,o),
(76,-16,cs)
);
}
);
width = 152;
}
);
unicode = 46;
},
